<svg xmlns="http://www.w3.org/2000/svg" viewBox="0 0 64 64">
  <!-- Contours noirs d'abord, puis remplissage par-dessus -->
  
  <!-- Capuche avec contours -->
  <rect x="24" y="8" width="16" height="8" fill="black"/>
  <rect x="25" y="9" width="14" height="6" fill="#FFFFFF"/>
  
  <!-- Visage -->
  <rect x="28" y="12" width="8" height="4" fill="black"/>
  <rect x="29" y="13" width="6" height="2" fill="#FFE4C4"/>
  
  <!-- Robe avec contours -->
  <rect x="20" y="24" width="24" height="24" fill="black"/>
  <rect x="21" y="25" width="22" height="22" fill="#FFFFFF"/>
  <rect x="24" y="16" width="16" height="32" fill="black"/>
  <rect x="25" y="17" width="14" height="30" fill="#FFFFFF"/>
  
  <!-- Croix Rouge sur la poitrine -->
  <rect x="28" y="24" width="8" height="16" fill="#FF0000"/>
  <rect x="24" y="28" width="16" height="8" fill="#FF0000"/>
  
  <!-- Manches avec contours -->
  <rect x="16" y="24" width="8" height="12" fill="black"/>
  <rect x="17" y="25" width="6" height="10" fill="#FFFFFF"/>
  <rect x="40" y="24" width="8" height="12" fill="black"/>
  <rect x="41" y="25" width="6" height="10" fill="#FFFFFF"/>
  
  <!-- Mains -->
  <rect x="16" y="36" width="8" height="4" fill="black"/>
  <rect x="17" y="37" width="6" height="2" fill="#FFE4C4"/>
  <rect x="40" y="36" width="8" height="4" fill="black"/>
  <rect x="41" y="37" width="6" height="2" fill="#FFE4C4"/>
  
  <!-- Bas de la robe -->
  <rect x="20" y="48" width="24" height="8" fill="black"/>
  <rect x="21" y="49" width="22" height="6" fill="#FFFFFF"/>
  
  <!-- Bâton de soin avec contours -->
  <rect x="44" y="20" width="4" height="32" fill="black"/>
  <rect x="45" y="21" width="2" height="30" fill="#8B4513"/>
  
  <!-- Croix en haut du bâton -->
  <rect x="44" y="16" width="8" height="8" fill="black"/>
  <rect x="45" y="17" width="6" height="6" fill="#FFD700"/>
  <rect x="46" y="14" width="4" height="12" fill="black"/>
  <rect x="47" y="15" width="2" height="10" fill="#FFD700"/>
  
  <!-- Aura de soin -->
  <rect x="52" y="24" width="4" height="4" fill="black"/>
  <rect x="53" y="25" width="2" height="2" fill="#90EE90"/>
  <rect x="48" y="32" width="4" height="4" fill="black"/>
  <rect x="49" y="33" width="2" height="2" fill="#90EE90"/>
  <rect x="52" y="40" width="4" height="4" fill="black"/>
  <rect x="53" y="41" width="2" height="2" fill="#90EE90"/>
</svg>
