<svg xmlns="http://www.w3.org/2000/svg" viewBox="0 0 64 64">
  <!-- Chapeau de mage -->
  <rect x="28" y="4" width="8" height="4" fill="#4B0082"/>
  <rect x="24" y="8" width="16" height="4" fill="#4B0082"/>
  <rect x="20" y="12" width="24" height="4" fill="#4B0082"/>
  
  <!-- Visage -->
  <rect x="28" y="16" width="8" height="4" fill="#FFE4C4"/>
  <rect x="28" y="20" width="8" height="4" fill="#FFE4C4"/>
  
  <!-- Barbe -->
  <rect x="28" y="24" width="8" height="4" fill="#A8A8A8"/>
  
  <!-- Robe -->
  <rect x="24" y="24" width="16" height="24" fill="#4B0082"/>
  <rect x="20" y="32" width="24" height="16" fill="#4B0082"/>
  
  <!-- Manches -->
  <rect x="16" y="28" width="8" height="12" fill="#4B0082"/>
  <rect x="40" y="28" width="8" height="12" fill="#4B0082"/>
  
  <!-- Bas de la robe -->
  <rect x="16" y="48" width="32" height="8" fill="#4B0082"/>
  
  <!-- Bâton magique -->
  <rect x="44" y="20" width="4" height="32" fill="#8B4513"/>
  <rect x="44" y="16" width="8" height="8" fill="#4169E1"/>
  
  <!-- Étoiles magiques (en pixels) -->
  <rect x="48" y="12" width="4" height="4" fill="#FFD700"/>
  <rect x="52" y="24" width="4" height="4" fill="#FFD700"/>
  
  <!-- Décorations dorées sur la robe -->
  <rect x="24" y="36" width="16" height="4" fill="#FFD700"/>
  <rect x="20" y="44" width="24" height="4" fill="#FFD700"/>
</svg>
