<svg xmlns="http://www.w3.org/2000/svg" viewBox="0 0 64 64">
  <!-- On crée une grille de pixels de 4x4 -->
  <!-- Casque -->
  <rect x="28" y="8" width="8" height="4" fill="#666666"/>
  <rect x="24" y="12" width="16" height="4" fill="#666666"/>
  <rect x="28" y="12" width="8" height="4" fill="#444444"/>
  
  <!-- Tête -->
  <rect x="28" y="16" width="8" height="4" fill="#333333"/>
  
  <!-- Épaulières -->
  <rect x="20" y="20" width="8" height="8" fill="#777777"/>
  <rect x="36" y="20" width="8" height="8" fill="#777777"/>
  <rect x="16" y="24" width="4" height="4" fill="#777777"/>
  <rect x="44" y="24" width="4" height="4" fill="#777777"/>
  
  <!-- Torse -->
  <rect x="24" y="24" width="16" height="12" fill="#666666"/>
  <rect x="28" y="28" width="8" height="4" fill="#555555"/>
  
  <!-- Bras -->
  <rect x="16" y="28" width="8" height="12" fill="#666666"/>
  <rect x="40" y="28" width="8" height="12" fill="#666666"/>
  
  <!-- Mains -->
  <rect x="12" y="40" width="8" height="4" fill="#555555"/>
  <rect x="44" y="40" width="8" height="4" fill="#555555"/>
  
  <!-- Jambes -->
  <rect x="24" y="36" width="16" height="16" fill="#666666"/>
  <rect x="24" y="44" width="16" height="8" fill="#555555"/>
  
  <!-- Bottes -->
  <rect x="20" y="52" width="10" height="4" fill="#444444"/>
  <rect x="34" y="52" width="10" height="4" fill="#444444"/>
</svg>
